<svg xmlns="http://www.w3.org/2000/svg" viewBox="0 0 252.23 330.34"><defs><style>.cls-1{fill:#fff;}.cls-2{fill:#fff200;}.cls-3{fill:#2aace2;}.cls-4{fill:#27aae1;}</style></defs><title>Facebook Cover Asset 1</title><g id="Layer_2" data-name="Layer 2"><g id="Layer_1-2" data-name="Layer 1"><polygon class="cls-1" points="251.44 267.01 140.18 330.34 29.71 265.64 30.5 137.63 141.76 74.3 252.23 138.99 251.44 267.01"/><polygon class="cls-2" points="244.5 263.06 140.6 322.19 37.44 261.78 38.18 142.24 142.07 83.1 245.23 143.51 244.5 263.06"/><polygon class="cls-1" points="187.78 254.29 140.05 228.04 138.92 173.59 185.51 145.38 233.24 171.63 234.37 226.08 187.78 254.29"/><path class="cls-1" d="M52.88,187.17v11.36h7V187.17h6v29.69h-6V203.68h-7v13.18h-6V187.17Z"/><path class="cls-1" d="M83.19,187.17l7.86,29.69H84.82l-1.38-6.28h-7.9l-1.37,6.28H67.93l7.86-29.69Zm-.79,18.51-2.86-13.35h-.09l-2.87,13.35Z"/><path class="cls-1" d="M105,192.48a2.86,2.86,0,0,0-2.8-1.48,2.8,2.8,0,0,0-1.85.6,4,4,0,0,0-1.15,2,17.11,17.11,0,0,0-.58,3.53c-.11,1.46-.16,3.24-.16,5.34a52.89,52.89,0,0,0,.22,5.45,12.26,12.26,0,0,0,.71,3.22,2.9,2.9,0,0,0,1.21,1.54,3.37,3.37,0,0,0,1.68.4,4,4,0,0,0,1.48-.27,2.51,2.51,0,0,0,1.18-1.08,7.05,7.05,0,0,0,.79-2.29,20.36,20.36,0,0,0,.29-3.89h6a26.69,26.69,0,0,1-.37,4.57,10.32,10.32,0,0,1-1.4,3.79,6.94,6.94,0,0,1-2.86,2.54,11.06,11.06,0,0,1-4.81.91,11.3,11.3,0,0,1-5.36-1.08,7.31,7.31,0,0,1-3.06-3.12,13.94,13.94,0,0,1-1.37-4.87,62.66,62.66,0,0,1,0-12.45,13.93,13.93,0,0,1,1.37-4.88,7.69,7.69,0,0,1,3.06-3.18,10.69,10.69,0,0,1,5.36-1.15,10.35,10.35,0,0,1,5,1,7.14,7.14,0,0,1,2.77,2.64,9.13,9.13,0,0,1,1.14,3.45,29,29,0,0,1,.23,3.48h-6A10.64,10.64,0,0,0,105,192.48Z"/><path class="cls-1" d="M121.45,199.07h.08l7.57-11.9h6.48l-8.06,12.73,9,17h-6.74l-6.11-12.18-2.2,3.37v8.81h-6V187.17h6Z"/><path class="cls-3" d="M169.51,181.09l4.61,11.58,4.55-11.58h7.87l-8.32,17.69,8.92,18.08H179l-5.16-12.12-5.11,12.12h-7.92l8.92-18.08-8.22-17.69Z"/><path class="cls-3" d="M202.12,181.09a12.89,12.89,0,0,1,6.06,1.23,8.71,8.71,0,0,1,3.58,3.51,15.43,15.43,0,0,1,1.73,5.48,52,52,0,0,1,.45,7.17,51.34,51.34,0,0,1-.57,8.19,15.8,15.8,0,0,1-2,5.73,8.65,8.65,0,0,1-3.76,3.36,14,14,0,0,1-6,1.1H190.3V181.09Zm-1.4,30.46a6.22,6.22,0,0,0,3.05-.65,4.43,4.43,0,0,0,1.83-2.15,12.6,12.6,0,0,0,.9-4c.15-1.64.23-3.67.23-6.11,0-2-.07-3.83-.2-5.36a13.39,13.39,0,0,0-.83-3.84,4.8,4.8,0,0,0-1.85-2.3,6.05,6.05,0,0,0-3.28-.78h-3.06v25.15Z"/><rect class="cls-2" x="65.44" y="103.3" width="25.18" height="25.18"/><path class="cls-1" d="M93.12,131H63V100.8H93.12ZM68,126H88.12V105.8H68Z"/><rect class="cls-4" x="83.45" y="63.43" width="25.18" height="25.18"/><path class="cls-1" d="M110.63,90.61H81.45V61.43h29.18Zm-25.18-4h21.18V65.43H85.45Z"/><rect class="cls-2" x="44.82" y="90.71" width="25.18" height="25.18"/><path class="cls-1" d="M72.49,118.39H42.32V88.21H72.49Zm-25.17-5H67.49V93.21H47.32Z"/><rect class="cls-2" x="52.86" y="39.17" width="25.18" height="25.18"/><path class="cls-1" d="M80.53,66.85H50.36V36.67H80.53Zm-25.17-5H75.53V41.67H55.36Z"/><rect class="cls-4" x="19.64" y="122.68" width="25.18" height="25.18"/><path class="cls-1" d="M46.82,149.86H17.64V120.68H46.82Zm-25.18-4H42.82V124.68H21.64Z"/><rect class="cls-2" x="78.03" y="6.19" width="25.18" height="25.18"/><path class="cls-1" d="M105.71,33.87H75.53V3.69h30.18Zm-25.18-5h20.18V8.69H80.53Z"/><rect class="cls-4" x="40.27" y="22.3" width="25.18" height="25.18"/><path class="cls-1" d="M67.45,49.48H38.27V20.3H67.45Zm-25.18-4H63.45V24.3H42.27Z"/><rect class="cls-4" x="128.75" y="63.43" width="25.18" height="25.18"/><path class="cls-1" d="M155.93,90.61H126.75V61.43h29.18Zm-25.18-4h21.18V65.43H130.75Z"/><rect class="cls-2" x="9.09" y="63.43" width="25.18" height="25.18"/><path class="cls-1" d="M36.77,91.11H6.59V60.93H36.77Zm-25.18-5H31.77V65.93H11.59Z"/><rect class="cls-2" x="2.5" y="2.5" width="25.18" height="25.18"/><path class="cls-1" d="M30.18,30.18H0V0H30.18ZM5,25.18H25.18V5H5Z"/><rect class="cls-2" x="113.85" y="77.35" width="25.18" height="25.18"/><path class="cls-1" d="M141.53,105H111.35V74.85h30.18Zm-25.18-5h20.18V79.85H116.35Z"/><rect class="cls-3" x="118.48" y="126.65" width="25.18" height="25.18"/><path class="cls-1" d="M145.66,153.83H116.48V124.65h29.18Zm-25.18-4h21.18V128.65H120.48Z"/><rect class="cls-3" x="78.03" y="147.86" width="25.18" height="25.18"/><path class="cls-1" d="M105.21,175H76V145.86h29.18ZM80,171h21.18V149.86H80Z"/></g></g></svg>