<svg xmlns="http://www.w3.org/2000/svg" viewBox="0 0 312.8 75.08"><defs><style>.cls-1{fill:#fff200;}.cls-2{fill:#231f20;}</style></defs><title>Asset 2</title><g id="Layer_2" data-name="Layer 2"><g id="Layer_1-2" data-name="Layer 1"><rect class="cls-1" x="2.5" y="2.5" width="307.8" height="70.08"/><path class="cls-2" d="M312.8,75.08H0V0H312.8ZM5,70.08H307.8V5H5Z"/><path class="cls-2" d="M208,14.9V59.51h7.95v2.72H205.15v-50h10.79V14.9Z"/><path class="cls-2" d="M244.25,56.67,233,39.32,221.78,56.67h-3.44l12.95-20L219.06,17.74h3.39L233,34l10.51-16.29h3.39L234.69,36.65l13,20Z"/><path class="cls-2" d="M286.75,37.2c0,10.74-7.62,19.47-18.36,19.47H253.77V17.74h14.62C279.13,17.74,286.75,26.47,286.75,37.2Zm-2.89,0c0-9.23-6.29-16.68-15.47-16.68H256.71V53.89h11.68C277.57,53.89,283.86,46.44,283.86,37.2Z"/><path class="cls-2" d="M300.15,62.23H289.36V59.51h8V14.9h-8V12.18h10.79Z"/><rect class="cls-2" x="2.5" y="2.5" width="192.87" height="70.08"/><path class="cls-1" d="M57.83,17.74V56.67H54.88V38H32.25V56.67H29.3V17.74h2.95V35.26H54.88V17.74Z"/><path class="cls-1" d="M89.92,46.77H70.4l-3.78,9.9H63.51L78.63,17.74h3.12L96.82,56.67H93.71Zm-1-2.78L80.19,21.35,71.52,44Z"/><path class="cls-1" d="M98.88,37.2a19.74,19.74,0,0,1,20.25-20.08,19,19,0,0,1,16.68,9.35L133.2,28a15.87,15.87,0,0,0-14.07-8,16.83,16.83,0,0,0-17.3,17.24,16.82,16.82,0,0,0,17.3,17.24,15.9,15.9,0,0,0,14.18-8.17l2.61,1.5a19,19,0,0,1-16.79,9.51C107.28,57.28,98.88,48.33,98.88,37.2Z"/><path class="cls-1" d="M165.35,56.67,145.83,37.48V56.67h-3V17.74h3V35.87l19-18.13h4L149.05,36.65l20.25,20Z"/></g></g></svg>